<svg width="24" height="34" viewBox="0 0 24 34" fill="none" xmlns="http://www.w3.org/2000/svg">
<g id="heroicons-solid/arrows-right-left" clip-path="url(#clip0_4_9)">
<path id="Vector (Stroke)" fill-rule="evenodd" clip-rule="evenodd" d="M2.46967 11.2425C2.17678 10.8324 2.17678 10.1676 2.46967 9.75754L6.96967 3.45754C7.11032 3.26063 7.30109 3.15001 7.5 3.15001C7.69891 3.15001 7.88968 3.26063 8.03033 3.45754L12.5303 9.75754C12.8232 10.1676 12.8232 10.8324 12.5303 11.2425C12.2374 11.6525 11.7626 11.6525 11.4697 11.2425L8.25 6.73493L8.25 23.1C8.25 23.6799 7.91421 24.15 7.5 24.15C7.08579 24.15 6.75 23.6799 6.75 23.1L6.75 6.73493L3.53033 11.2425C3.23744 11.6525 2.76256 11.6525 2.46967 11.2425ZM11.4697 22.3575C11.7626 21.9475 12.2374 21.9475 12.5303 22.3575L15.75 26.8651L15.75 10.5C15.75 9.92011 16.0858 9.45 16.5 9.45C16.9142 9.45 17.25 9.92011 17.25 10.5V26.8651L20.4697 22.3575C20.7626 21.9475 21.2374 21.9475 21.5303 22.3575C21.8232 22.7676 21.8232 23.4324 21.5303 23.8425L17.0303 30.1425C16.7374 30.5525 16.2626 30.5525 15.9697 30.1425L11.4697 23.8425C11.1768 23.4324 11.1768 22.7676 11.4697 22.3575Z" fill="#C2C2C2"/>
</g>
<defs>
<clipPath id="clip0_4_9">
<rect width="33.6" height="24" fill="white" transform="matrix(0 -1 1 0 0 33.6)"/>
</clipPath>
</defs>
</svg>
