<svg width="24" height="25" viewBox="0 0 24 25" fill="none" xmlns="http://www.w3.org/2000/svg">
<g id="heroicons-solid/cog-6-tooth">
<path id="Subtract" fill-rule="evenodd" clip-rule="evenodd" d="M11.0779 2.75C10.1613 2.75 9.37909 3.41265 9.22841 4.31675L9.04974 5.38873C9.02959 5.50964 8.93542 5.6498 8.75311 5.73747C8.40905 5.90292 8.07967 6.0938 7.7674 6.3076C7.60091 6.42159 7.43259 6.4332 7.31769 6.39015L6.29851 6.00833C5.44019 5.68678 4.4752 6.03289 4.01692 6.82666L3.09493 8.42358C2.63665 9.21736 2.8194 10.2261 3.52704 10.8087L4.36756 11.5006C4.46219 11.5785 4.53629 11.7298 4.52119 11.9307C4.50706 12.1188 4.49988 12.3086 4.49988 12.5C4.49988 12.6915 4.50707 12.8814 4.52121 13.0695C4.53632 13.2704 4.46221 13.4217 4.36758 13.4996L3.52704 14.1916C2.8194 14.7741 2.63665 15.7829 3.09493 16.5767L4.01692 18.1736C4.4752 18.9674 5.44019 19.3135 6.29851 18.9919L7.31791 18.61C7.43281 18.567 7.60113 18.5786 7.76761 18.6925C8.07982 18.9063 8.40913 19.0971 8.75311 19.2625C8.93542 19.3502 9.02959 19.4904 9.04974 19.6113L9.22841 20.6832C9.37909 21.5874 10.1613 22.25 11.0779 22.25H12.9219C13.8384 22.25 14.6207 21.5874 14.7713 20.6832L14.95 19.6113C14.9702 19.4904 15.0643 19.3502 15.2466 19.2625C15.5907 19.0971 15.9201 18.9062 16.2324 18.6924C16.3988 18.5784 16.5672 18.5668 16.6821 18.6098L17.7012 18.9917C18.5596 19.3132 19.5246 18.9671 19.9828 18.1733L20.9048 16.5764C21.3631 15.7826 21.1804 14.7739 20.4727 14.1913L19.6322 13.4994C19.5376 13.4215 19.4635 13.2702 19.4786 13.0693C19.4927 12.8812 19.4999 12.6914 19.4999 12.5C19.4999 12.3085 19.4927 12.1186 19.4785 11.9305C19.4634 11.7296 19.5375 11.5783 19.6322 11.5004L20.4727 10.8084C21.1804 10.2259 21.3631 9.21711 20.9048 8.42334L19.9828 6.82642C19.5246 6.03264 18.5596 5.68654 17.7012 6.00809L16.6818 6.39C16.5669 6.43304 16.3986 6.42144 16.2321 6.30746C15.9199 6.09371 15.5906 5.90289 15.2466 5.73747C15.0643 5.6498 14.9702 5.50964 14.95 5.38873L14.7713 4.31675C14.6207 3.41265 13.8384 2.75 12.9219 2.75H11.0779ZM12 16.25C14.0711 16.25 15.75 14.5711 15.75 12.5C15.75 10.4289 14.0711 8.75 12 8.75C9.92893 8.75 8.25 10.4289 8.25 12.5C8.25 14.5711 9.92893 16.25 12 16.25Z" fill="#AFAFAF"/>
</g>
</svg>
