<svg width="24" height="25" viewBox="0 0 24 25" fill="none" xmlns="http://www.w3.org/2000/svg">
<g id="recent 1" clip-path="url(#clip0_2_6)">
<path id="Shape" d="M11.25 21.5C11.25 21.3011 11.329 21.1103 11.4697 20.9697C11.6103 20.829 11.8011 20.75 12 20.75C13.8864 20.75 15.7158 20.1036 17.1834 18.9184C18.651 17.7332 19.6681 16.0809 20.0653 14.2368C20.4624 12.3927 20.2155 10.4681 19.3658 8.78394C18.5161 7.09974 17.1149 5.7576 15.3957 4.98119C13.6765 4.20478 11.7431 4.041 9.91779 4.51714C8.09247 4.99327 6.48545 6.08057 5.36455 7.59783C4.24364 9.11508 3.67655 10.9707 3.75779 12.8553C3.83903 14.74 4.56368 16.5398 5.81099 17.955V15.318C5.81099 15.1191 5.89001 14.9283 6.03066 14.7877C6.17132 14.647 6.36208 14.568 6.56099 14.568C6.75991 14.568 6.95067 14.647 7.09132 14.7877C7.23198 14.9283 7.31099 15.1191 7.31099 15.318V19.561C7.31099 19.6596 7.29156 19.7572 7.25381 19.8483C7.21605 19.9393 7.16072 20.022 7.09097 20.0917C7.02122 20.1614 6.93842 20.2166 6.84731 20.2542C6.7562 20.2918 6.65857 20.3111 6.55999 20.311H2.31799C2.11908 20.311 1.92832 20.232 1.78766 20.0913C1.64701 19.9507 1.56799 19.7599 1.56799 19.561C1.56799 19.3621 1.64701 19.1713 1.78766 19.0307C1.92832 18.89 2.11908 18.811 2.31799 18.811H4.56799C3.13022 17.1174 2.31394 14.9836 2.2543 12.7628C2.19466 10.5419 2.89524 8.36737 4.24005 6.59903C5.58486 4.83069 7.49325 3.57464 9.64927 3.03883C11.8053 2.50302 14.0797 2.71959 16.0958 3.65267C18.112 4.58575 19.749 6.17939 20.7359 8.16975C21.7228 10.1601 22.0004 12.4278 21.5227 14.5975C21.045 16.7671 19.8407 18.7086 18.1091 20.1004C16.3776 21.4922 14.2226 22.251 12.001 22.251C11.9023 22.2511 11.8046 22.2318 11.7134 22.1941C11.6223 22.1564 11.5394 22.1011 11.4697 22.0313C11.3999 21.9616 11.3446 21.8787 11.3069 21.7876C11.2692 21.6964 11.2499 21.5987 11.25 21.5ZM14.125 16.686L11.468 14.031C11.3274 13.89 11.2483 13.6991 11.248 13.5V8.30001C11.248 8.1011 11.327 7.91034 11.4677 7.76968C11.6083 7.62903 11.7991 7.55001 11.998 7.55001C12.1969 7.55001 12.3877 7.62903 12.5283 7.76968C12.669 7.91034 12.748 8.1011 12.748 8.30001V13.189L15.184 15.625C15.2556 15.6942 15.3127 15.777 15.352 15.8685C15.3912 15.9601 15.4119 16.0585 15.4127 16.1581C15.4135 16.2577 15.3945 16.3564 15.3567 16.4486C15.319 16.5407 15.2632 16.6244 15.1928 16.6948C15.1223 16.7652 15.0386 16.8208 14.9464 16.8585C14.8542 16.8962 14.7554 16.9151 14.6558 16.9142C14.5562 16.9133 14.4578 16.8926 14.3664 16.8532C14.2749 16.8139 14.1921 16.7567 14.123 16.685L14.125 16.686Z" fill="white"/>
</g>
<defs>
<clipPath id="clip0_2_6">
<rect width="24" height="24" fill="white" transform="translate(0 0.5)"/>
</clipPath>
</defs>
</svg>
